<svg width="1000" height="300" viewBox="0 0 1000 300" fill="none" xmlns="http://www.w3.org/2000/svg">
<rect width="1000" height="300" fill="#F5F5F5"/>
<rect width="1000" height="300" fill="white"/>
<path d="M71.2445 194V101.29H80.7695V194H71.2445ZM61.4655 109.037V101.29H80.7695V109.037H61.4655ZM128.701 195.905C120.658 195.905 114.519 193.323 110.286 188.158C106.053 182.909 103.936 175.627 103.936 166.314V126.69H113.334V168.219C113.334 174.061 114.858 178.718 117.906 182.189C121.039 185.576 125.357 187.269 130.86 187.269C136.617 187.269 141.189 185.449 144.576 181.808C148.047 178.167 149.783 173.299 149.783 167.203V126.69H159.308V194H151.688V165.933H153.212C153.212 172.198 152.323 177.575 150.545 182.062C148.767 186.465 146.1 189.894 142.544 192.349C138.988 194.72 134.501 195.905 129.082 195.905H128.701ZM212.536 196.159C206.863 196.159 201.91 195.185 197.677 193.238C193.528 191.206 190.057 188.497 187.263 185.11C184.469 181.639 182.352 177.829 180.913 173.68C179.558 169.531 178.881 165.34 178.881 161.107V159.329C178.881 155.011 179.558 150.82 180.913 146.756C182.352 142.607 184.469 138.882 187.263 135.58C190.057 132.193 193.528 129.526 197.677 127.579C201.91 125.547 206.779 124.531 212.282 124.531C217.87 124.531 222.823 125.547 227.141 127.579C231.544 129.611 235.1 132.49 237.809 136.215C240.518 139.94 242.127 144.343 242.635 149.423H233.491C232.729 144.766 230.528 140.914 226.887 137.866C223.331 134.733 218.463 133.167 212.282 133.167C206.948 133.167 202.503 134.395 198.947 136.85C195.476 139.221 192.851 142.48 191.073 146.629C189.295 150.693 188.406 155.223 188.406 160.218C188.406 165.129 189.295 169.701 191.073 173.934C192.851 178.083 195.518 181.427 199.074 183.967C202.63 186.422 207.117 187.65 212.536 187.65C216.685 187.65 220.283 186.93 223.331 185.491C226.464 183.967 228.961 181.935 230.824 179.395C232.771 176.855 233.914 174.061 234.253 171.013H243.397C243.058 176.093 241.45 180.538 238.571 184.348C235.777 188.073 232.136 190.994 227.649 193.111C223.162 195.143 218.124 196.159 212.536 196.159ZM301.755 194V173.807H300.231V149.931C300.231 144.936 298.919 141.126 296.294 138.501C293.67 135.792 289.606 134.437 284.102 134.437C281.562 134.437 278.98 134.479 276.355 134.564C273.815 134.649 271.36 134.776 268.989 134.945C266.703 135.03 264.671 135.157 262.893 135.326V126.944C264.756 126.775 266.661 126.605 268.608 126.436C270.556 126.267 272.545 126.182 274.577 126.182C276.694 126.097 278.726 126.055 280.673 126.055C287.531 126.055 293.035 126.902 297.183 128.595C301.417 130.288 304.507 132.955 306.454 136.596C308.402 140.152 309.375 144.893 309.375 150.82V194H301.755ZM279.022 195.778C274.281 195.778 270.09 194.931 266.449 193.238C262.809 191.545 259.972 189.089 257.94 185.872C255.993 182.655 255.019 178.76 255.019 174.188C255.019 169.701 256.035 165.891 258.067 162.758C260.184 159.625 263.19 157.255 267.084 155.646C271.064 153.953 275.847 153.106 281.435 153.106H301.12V160.345H280.8C275.466 160.345 271.36 161.657 268.481 164.282C265.687 166.822 264.29 170.166 264.29 174.315C264.29 178.548 265.772 181.935 268.735 184.475C271.699 186.93 275.72 188.158 280.8 188.158C283.933 188.158 286.939 187.608 289.817 186.507C292.696 185.322 295.109 183.374 297.056 180.665C299.004 177.871 300.062 174.061 300.231 169.235L303.025 173.172C302.687 178.167 301.501 182.358 299.469 185.745C297.437 189.047 294.686 191.545 291.214 193.238C287.743 194.931 283.679 195.778 279.022 195.778ZM333.167 194V126.817H340.787V155.011H339.263C339.263 148.746 340.194 143.369 342.057 138.882C343.92 134.395 346.714 130.923 350.439 128.468C354.164 126.013 358.863 124.785 364.536 124.785H364.917C373.384 124.785 379.691 127.452 383.84 132.786C387.989 138.035 390.063 145.444 390.063 155.011V194H380.665V152.979C380.665 147.137 379.056 142.438 375.839 138.882C372.622 135.326 368.134 133.548 362.377 133.548C356.45 133.548 351.667 135.411 348.026 139.136C344.47 142.777 342.692 147.603 342.692 153.614V194H333.167ZM443.881 196.159C438.124 196.159 433.044 195.185 428.641 193.238C424.323 191.206 420.64 188.539 417.592 185.237C414.629 181.85 412.343 178.083 410.734 173.934C409.21 169.785 408.448 165.552 408.448 161.234V159.456C408.448 155.138 409.253 150.905 410.861 146.756C412.47 142.523 414.798 138.755 417.846 135.453C420.894 132.151 424.577 129.526 428.895 127.579C433.298 125.547 438.293 124.531 443.881 124.531C449.554 124.531 454.549 125.547 458.867 127.579C463.27 129.526 466.995 132.151 470.043 135.453C473.091 138.755 475.377 142.523 476.901 146.756C478.51 150.905 479.314 155.138 479.314 159.456V161.234C479.314 165.552 478.552 169.785 477.028 173.934C475.504 178.083 473.218 181.85 470.17 185.237C467.207 188.539 463.524 191.206 459.121 193.238C454.719 195.185 449.639 196.159 443.881 196.159ZM443.881 187.65C449.469 187.65 454.168 186.422 457.978 183.967C461.873 181.427 464.836 178.125 466.868 174.061C468.9 169.912 469.916 165.34 469.916 160.345C469.916 155.265 468.858 150.693 466.741 146.629C464.709 142.48 461.746 139.221 457.851 136.85C453.957 134.395 449.3 133.167 443.881 133.167C438.547 133.167 433.933 134.395 430.038 136.85C426.144 139.221 423.138 142.48 421.021 146.629C418.989 150.693 417.973 155.265 417.973 160.345C417.973 165.34 418.989 169.912 421.021 174.061C423.053 178.125 425.974 181.427 429.784 183.967C433.679 186.422 438.378 187.65 443.881 187.65ZM551.748 196.159C541.842 196.159 534.095 194.127 528.507 190.063C522.919 185.999 519.956 180.284 519.617 172.918H537.651C537.99 175.119 539.302 177.109 541.588 178.887C543.959 180.58 547.472 181.427 552.129 181.427C555.685 181.427 558.606 180.834 560.892 179.649C563.263 178.379 564.448 176.601 564.448 174.315C564.448 172.283 563.559 170.674 561.781 169.489C560.003 168.219 556.828 167.33 552.256 166.822L546.795 166.314C538.413 165.467 532.105 163.139 527.872 159.329C523.723 155.519 521.649 150.651 521.649 144.724C521.649 139.813 522.877 135.707 525.332 132.405C527.787 129.103 531.174 126.605 535.492 124.912C539.895 123.219 544.89 122.372 550.478 122.372C559.453 122.372 566.692 124.362 572.195 128.341C577.698 132.236 580.577 137.908 580.831 145.359H562.797C562.458 143.073 561.273 141.168 559.241 139.644C557.209 138.035 554.203 137.231 550.224 137.231C547.091 137.231 544.594 137.824 542.731 139.009C540.868 140.194 539.937 141.803 539.937 143.835C539.937 145.782 540.741 147.264 542.35 148.28C543.959 149.296 546.583 150.016 550.224 150.439L555.685 150.947C564.236 151.878 570.883 154.249 575.624 158.059C580.365 161.869 582.736 166.991 582.736 173.426C582.736 178.083 581.466 182.147 578.926 185.618C576.386 189.005 572.788 191.629 568.131 193.492C563.474 195.27 558.013 196.159 551.748 196.159ZM627.524 194.889C620.497 194.889 614.824 194.042 610.506 192.349C606.188 190.571 603.013 187.65 600.981 183.586C599.034 179.437 598.06 173.849 598.06 166.822V105.608H616.983V167.584C616.983 170.886 617.83 173.426 619.523 175.204C621.301 176.897 623.799 177.744 627.016 177.744H637.303V194.889H627.524ZM587.519 139.263V124.404H637.303V139.263H587.519ZM674.463 196.159C666.419 196.159 660.239 193.577 655.921 188.412C651.603 183.163 649.444 175.289 649.444 164.79V124.404H669.764V165.806C669.764 169.531 670.822 172.495 672.939 174.696C675.055 176.897 677.892 177.998 681.448 177.998C685.088 177.998 688.052 176.855 690.338 174.569C692.624 172.283 693.767 169.193 693.767 165.298V124.404H714.087V194H697.958V164.663H699.355C699.355 171.69 698.423 177.575 696.561 182.316C694.783 186.973 692.116 190.444 688.56 192.73C685.004 195.016 680.601 196.159 675.352 196.159H674.463ZM761.525 196.286C756.615 196.286 752.127 195.397 748.063 193.619C744.084 191.841 740.613 189.386 737.649 186.253C734.686 183.036 732.4 179.268 730.791 174.95C729.267 170.632 728.505 165.975 728.505 160.98V158.059C728.505 153.064 729.225 148.407 730.664 144.089C732.188 139.771 734.347 136.003 737.141 132.786C740.02 129.484 743.449 126.944 747.428 125.166C751.408 123.303 755.853 122.372 760.763 122.372C766.351 122.372 771.177 123.6 775.241 126.055C779.305 128.426 782.48 131.982 784.766 136.723C787.052 141.38 788.322 147.137 788.576 153.995L783.242 149.042V101.29H803.689V194H787.56V165.171H790.354C790.1 171.775 788.703 177.405 786.163 182.062C783.708 186.719 780.364 190.275 776.13 192.73C771.897 195.101 767.029 196.286 761.525 196.286ZM766.605 179.268C769.738 179.268 772.574 178.591 775.114 177.236C777.739 175.797 779.813 173.722 781.337 171.013C782.946 168.304 783.75 165.044 783.75 161.234V156.535C783.75 152.81 782.946 149.677 781.337 147.137C779.729 144.597 777.612 142.65 774.987 141.295C772.363 139.94 769.526 139.263 766.478 139.263C763.092 139.263 760.044 140.152 757.334 141.93C754.71 143.623 752.635 145.994 751.111 149.042C749.587 152.005 748.825 155.477 748.825 159.456C748.825 163.52 749.587 167.034 751.111 169.997C752.635 172.96 754.752 175.246 757.461 176.855C760.171 178.464 763.219 179.268 766.605 179.268ZM825.422 194V124.404H845.742V194H825.422ZM816.151 139.39V124.404H845.742V139.39H816.151ZM833.296 117.546C829.486 117.546 826.65 116.572 824.787 114.625C823.009 112.593 822.12 110.053 822.12 107.005C822.12 103.872 823.009 101.332 824.787 99.385C826.65 97.353 829.486 96.337 833.296 96.337C837.106 96.337 839.9 97.353 841.678 99.385C843.541 101.332 844.472 103.872 844.472 107.005C844.472 110.053 843.541 112.593 841.678 114.625C839.9 116.572 837.106 117.546 833.296 117.546ZM898.445 196.413C892.349 196.413 886.93 195.482 882.189 193.619C877.448 191.672 873.426 189.047 870.124 185.745C866.907 182.443 864.451 178.675 862.758 174.442C861.065 170.124 860.218 165.594 860.218 160.853V157.932C860.218 153.106 861.065 148.534 862.758 144.216C864.536 139.813 867.076 135.961 870.378 132.659C873.765 129.357 877.829 126.775 882.57 124.912C887.311 122.965 892.603 121.991 898.445 121.991C904.456 121.991 909.79 122.965 914.447 124.912C919.188 126.775 923.21 129.357 926.512 132.659C929.814 135.961 932.354 139.813 934.132 144.216C935.91 148.534 936.799 153.106 936.799 157.932V160.853C936.799 165.594 935.952 170.124 934.259 174.442C932.566 178.675 930.068 182.443 926.766 185.745C923.549 189.047 919.569 191.672 914.828 193.619C910.087 195.482 904.626 196.413 898.445 196.413ZM898.445 179.268C902.424 179.268 905.726 178.421 908.351 176.728C910.976 175.035 912.965 172.664 914.32 169.616C915.759 166.568 916.479 163.181 916.479 159.456C916.479 155.477 915.759 152.005 914.32 149.042C912.881 145.994 910.806 143.581 908.097 141.803C905.472 140.025 902.255 139.136 898.445 139.136C894.72 139.136 891.502 140.025 888.793 141.803C886.084 143.581 884.009 145.994 882.57 149.042C881.215 152.005 880.538 155.477 880.538 159.456C880.538 163.181 881.215 166.568 882.57 169.616C883.925 172.664 885.957 175.035 888.666 176.728C891.375 178.421 894.635 179.268 898.445 179.268Z" fill="black"/>
</svg>
