<svg width="335" height="269" viewBox="0 0 335 269" fill="none" xmlns="http://www.w3.org/2000/svg">
<path d="M161.2 67.4C171.6 67.4 180.267 68.6667 187.2 71.2C194.267 73.6 199.533 77.2 203 82C206.6 86.8 208.4 92.8667 208.4 100.2C208.4 105.8 207.133 110.667 204.6 114.8C202.2 118.933 199.067 122.333 195.2 125C191.333 127.667 187 129.733 182.2 131.2C177.4 132.533 172.667 133.333 168 133.6V135.2C174 135.333 179.867 136.133 185.6 137.6C191.333 138.933 196.467 141 201 143.8C205.533 146.6 209.133 150.267 211.8 154.8C214.467 159.2 215.8 164.667 215.8 171.2C215.8 177.6 214.6 183.2 212.2 188C209.933 192.667 206.533 196.6 202 199.8C197.467 202.867 191.8 205.2 185 206.8C178.2 208.267 170.267 209 161.2 209H92.8V207L105 204V72.4L92.8 69.4V67.4H161.2ZM156.2 70.6C149.667 70.6 144.067 70.7333 139.4 71C134.733 71.1333 130.933 71.4667 128 72V204.6C133.067 205.533 142.733 206 157 206C164.6 206 171.133 204.8 176.6 202.4C182.2 200 186.467 196.133 189.4 190.8C192.467 185.333 194 178.333 194 169.8C194 158.467 190.933 150.133 184.8 144.8C178.8 139.333 169.067 136.467 155.6 136.2L126.6 135.8V133.6L155.6 133.2C163.067 133.067 169.133 131.667 173.8 129C178.6 126.2 182.133 122.333 184.4 117.4C186.8 112.467 188 106.733 188 100.2C188 90.6 185.333 83.2667 180 78.2C174.667 73.1333 166.733 70.6 156.2 70.6Z" fill="black"/>
<path d="M257.8 67.4C244.467 67.4 232.933 70.0667 223.2 75.4C213.333 80.6 205.8 88.4 200.6 98.8C195.267 109.067 192.6 121.867 192.6 137.2C192.6 152.933 195.2 166.133 200.4 176.8C205.467 187.333 212.867 195.333 222.6 200.8C232.2 206.267 243.8 209 257.4 209H324.2V207L312 204.4V71.6L324.2 69.4V67.4H257.8ZM263.2 70.6C267.733 70.6 272.4 70.7333 277.2 71C281.867 71.2667 285.8 71.6 289 72V202L285 206H262.6C246.867 206 235.2 200.067 227.6 188.2C219.867 176.333 216 158.867 216 135.8C216 121.8 217.733 110 221.2 100.4C224.667 90.6667 229.933 83.2667 237 78.2C243.933 73.1333 252.667 70.6 263.2 70.6Z" fill="black"/>
<path d="M10.8 209V207L23 205V71.4L10.8 69.4V67.4H58.4V69.4L46 71.4V206H85.6C88.6667 206 91.3333 205.133 93.6 203.4C96 201.667 98.0667 198.933 99.8 195.2C101.533 191.467 103.067 186.533 104.4 180.4L108.2 155.2H111.6L117.4 209H10.8Z" fill="black"/>
</svg>
