<?xml version="1.0" encoding="UTF-8"?>
<svg id="Layer_1" xmlns="http://www.w3.org/2000/svg" version="1.1" viewBox="0 0 570.968 92.903">
  <!-- Generator: Adobe Illustrator 29.4.0, SVG Export Plug-In . SVG Version: 2.1.0 Build 152)  -->
  <defs>
    <style>
      .st0 {
        fill: #732a84;
      }
    </style>
  </defs>
  <polygon class="st0" points="7.422 17.81 7.422 22.731 13.634 22.731 13.634 76.707 19.685 76.707 19.685 22.731 19.685 17.81 13.634 17.81 7.422 17.81"/>
  <path class="st0" d="M63.494,59.684c0,3.873-1.089,6.966-3.268,9.278-2.179,2.313-5.097,3.47-8.754,3.47-3.497,0-6.227-1.089-8.189-3.268-1.964-2.179-2.945-5.124-2.945-8.835v-26.382h-5.97v25.172c0,5.917,1.344,10.529,4.034,13.837,2.689,3.308,6.588,4.962,11.699,4.962h.242c3.442,0,6.293-.767,8.552-2.3,2.259-1.533,3.954-3.711,5.083-6.535.277-.692.517-1.42.726-2.181v9.805h4.841v-42.761h-6.051v25.737Z"/>
  <path class="st0" d="M115.008,67.429c-1.21,1.614-2.797,2.892-4.76,3.833-1.964.941-4.264,1.412-6.898,1.412-3.443,0-6.293-.793-8.552-2.38-2.259-1.586-3.953-3.711-5.083-6.374-1.129-2.662-1.694-5.553-1.694-8.673,0-3.173.565-6.064,1.694-8.673,1.13-2.608,2.81-4.68,5.043-6.212,2.231-1.533,5.042-2.299,8.431-2.299,3.925,0,7.032.982,9.318,2.945,2.286,1.964,3.671,4.425,4.155,7.382h5.809c-.323-3.228-1.345-6.023-3.066-8.391-1.722-2.366-3.967-4.195-6.737-5.486-2.771-1.291-5.93-1.936-9.48-1.936-3.497,0-6.576.633-9.238,1.896-2.663,1.264-4.881,2.958-6.656,5.083-1.775,2.125-3.106,4.492-3.994,7.1-.887,2.609-1.331,5.285-1.331,8.028v1.129c0,2.69.444,5.353,1.331,7.987.888,2.636,2.219,5.043,3.994,7.221,1.775,2.178,3.994,3.9,6.656,5.164s5.795,1.896,9.399,1.896c3.55,0,6.75-.659,9.601-1.977,2.85-1.317,5.176-3.173,6.979-5.567,1.801-2.393,2.81-5.204,3.025-8.431h-5.809c-.215,1.936-.928,3.711-2.138,5.325Z"/>
  <path class="st0" d="M157.203,35.156c-2.662-1.075-6.172-1.614-10.529-1.614-1.238,0-2.515.014-3.832.041-1.319.028-2.596.095-3.833.202-1.238.108-2.448.216-3.63.323v5.325c1.129-.107,2.433-.202,3.913-.283,1.479-.081,3.039-.147,4.68-.202,1.64-.053,3.268-.081,4.881-.081,3.496,0,6.078.847,7.745,2.542,1.667,1.694,2.501,4.128,2.501,7.302v2.017h-11.94c-3.55,0-6.576.524-9.077,1.574-2.501,1.049-4.411,2.569-5.729,4.558-1.318,1.991-1.977,4.411-1.977,7.261,0,2.905.631,5.379,1.896,7.423,1.263,2.045,3.052,3.604,5.365,4.68,2.312,1.075,4.975,1.613,7.987,1.613,2.958,0,5.54-.538,7.746-1.613,2.205-1.076,3.953-2.675,5.244-4.801.606-.998,1.083-2.122,1.452-3.351v8.635h4.841v-27.432c0-3.764-.619-6.79-1.855-9.077-1.238-2.285-3.187-3.966-5.85-5.042ZM157.083,68.195c-1.238,1.749-2.771,2.985-4.599,3.711-1.829.726-3.739,1.089-5.728,1.089-3.228,0-5.783-.793-7.665-2.38-1.883-1.586-2.824-3.724-2.824-6.414,0-2.635.9-4.773,2.703-6.415,1.802-1.64,4.397-2.46,7.786-2.46h12.344v5.647c-.108,3.066-.78,5.474-2.017,7.221Z"/>
  <path class="st0" d="M200.165,32.736h-.242c-3.604,0-6.589.78-8.956,2.34-2.368,1.561-4.143,3.766-5.325,6.616-.312.751-.577,1.547-.807,2.377v-10.042h-4.841v42.68h6.051v-25.657c0-3.818,1.142-6.898,3.429-9.238,2.286-2.34,5.311-3.51,9.077-3.51,3.657,0,6.507,1.13,8.552,3.389,2.043,2.259,3.066,5.244,3.066,8.956v26.06h5.97v-24.769c0-6.078-1.319-10.797-3.954-14.16-2.636-3.361-6.644-5.042-12.021-5.042Z"/>
  <path class="st0" d="M266.968,39.513c-1.937-2.098-4.29-3.778-7.06-5.042-2.771-1.263-5.958-1.896-9.561-1.896-3.55,0-6.71.633-9.48,1.896-2.771,1.264-5.123,2.945-7.06,5.042-1.936,2.098-3.416,4.478-4.438,7.14-1.022,2.663-1.533,5.365-1.533,8.108v1.129c0,2.743.497,5.434,1.493,8.068.995,2.636,2.447,5.016,4.356,7.14,1.909,2.125,4.249,3.82,7.02,5.083,2.77,1.263,5.983,1.896,9.641,1.896s6.885-.633,9.682-1.896c2.796-1.263,5.149-2.958,7.06-5.083,1.908-2.124,3.348-4.504,4.316-7.14.967-2.635,1.452-5.325,1.452-8.068v-1.129c0-2.743-.498-5.446-1.492-8.108-.996-2.663-2.461-5.042-4.397-7.14ZM264.951,64c-1.291,2.609-3.161,4.707-5.607,6.293-2.448,1.587-5.446,2.38-8.996,2.38-3.497,0-6.468-.793-8.915-2.38-2.448-1.586-4.316-3.684-5.607-6.293-1.291-2.608-1.937-5.499-1.937-8.673,0-3.228.658-6.145,1.977-8.754,1.317-2.608,3.213-4.68,5.688-6.212,2.473-1.533,5.406-2.299,8.794-2.299,3.442,0,6.4.766,8.875,2.299,2.474,1.533,4.37,3.604,5.688,6.212,1.317,2.609,1.977,5.526,1.977,8.754,0,3.174-.645,6.065-1.936,8.673Z"/>
  <path class="st0" d="M334.013,53.874c-3.014-2.42-7.235-3.926-12.667-4.519l-3.47-.322c-2.313-.269-3.981-.727-5.002-1.372-1.022-.646-1.533-1.586-1.533-2.824,0-1.291.591-2.312,1.775-3.066,1.182-.752,2.77-1.129,4.76-1.129,2.527,0,4.438.498,5.729,1.493,1.291.996,2.043,2.219,2.259,3.671h11.457c-.161-4.732-1.991-8.351-5.486-10.852-3.497-2.501-8.096-3.751-13.797-3.751-3.55,0-6.71.538-9.479,1.613-2.771,1.077-4.936,2.663-6.495,4.76-1.561,2.098-2.34,4.708-2.34,7.826,0,3.766,1.331,6.858,3.994,9.278,2.662,2.42,6.656,3.9,11.98,4.438l3.47.323c2.904.323,4.922.875,6.051,1.654,1.13.78,1.694,1.815,1.694,3.106,0,1.452-.74,2.569-2.219,3.348-1.479.78-3.348,1.17-5.607,1.17-2.958,0-5.177-.551-6.656-1.654-1.479-1.102-2.327-2.352-2.541-3.751h-11.457c.215,4.68,2.098,8.31,5.647,10.892,3.551,2.582,8.472,3.873,14.765,3.873,3.98,0,7.449-.579,10.408-1.735,2.958-1.156,5.244-2.824,6.858-5.002,1.613-2.178,2.42-4.747,2.42-7.705,0-4.087-1.507-7.342-4.518-9.762Z"/>
  <path class="st0" d="M360.315,20.553h-12.021v11.94h-6.697v9.44h6.697v17.508c0,4.465.631,8.001,1.896,10.609,1.264,2.609,3.268,4.465,6.011,5.567,2.743,1.102,6.346,1.654,10.812,1.654h6.212v-10.892h-6.535c-2.045,0-3.618-.551-4.72-1.654-1.103-1.102-1.653-2.703-1.653-4.801v-17.992h12.908v-9.44h-12.908v-11.94Z"/>
  <path class="st0" d="M409.125,58.473c0,2.475-.726,4.438-2.179,5.89-1.452,1.452-3.335,2.178-5.647,2.178-2.259,0-4.062-.698-5.405-2.098-1.346-1.398-2.018-3.28-2.018-5.647v-26.302h-12.908v25.657c0,6.67,1.371,11.658,4.114,14.966s6.669,4.962,11.779,4.962h.565c3.334,0,6.131-.726,8.391-2.178,2.259-1.453,3.966-3.671,5.123-6.656.332-.856.61-1.781.847-2.759v10.221h10.247v-44.213h-12.909v25.979Z"/>
  <path class="st0" d="M466.004,38.547c-1.339-2.138-3.029-3.825-5.083-5.044-2.582-1.533-5.647-2.299-9.197-2.299-3.12,0-5.944.579-8.472,1.734-2.528,1.157-4.693,2.771-6.495,4.841-1.803,2.071-3.174,4.478-4.114,7.221-.941,2.743-1.412,5.702-1.412,8.875v1.855c0,3.174.497,6.132,1.492,8.875s2.434,5.123,4.317,7.14c1.882,2.017,4.101,3.59,6.655,4.72,2.555,1.13,5.393,1.694,8.513,1.694,3.495,0,6.588-.767,9.278-2.299,2.688-1.533,4.826-3.778,6.414-6.737.313-.583.589-1.197.847-1.828v9.412h10.247V17.81h-12.99v20.737ZM466.327,55.891c0,2.421-.498,4.492-1.493,6.213-.996,1.722-2.313,3.025-3.953,3.913-1.642.888-3.457,1.332-5.446,1.332-2.151,0-4.088-.511-5.809-1.533-1.723-1.021-3.066-2.473-4.034-4.356-.968-1.882-1.452-4.115-1.452-6.697,0-2.527.484-4.746,1.452-6.656.968-1.908,2.3-3.415,3.994-4.518,1.693-1.102,3.616-1.654,5.769-1.654,1.936,0,3.737.431,5.405,1.291,1.667.861,3.012,2.098,4.034,3.711,1.021,1.614,1.533,3.604,1.533,5.971v2.985Z"/>
  <path class="st0" d="M497.791,28.137c2.421,0,4.208-.632,5.365-1.896,1.156-1.263,1.735-2.864,1.735-4.801,0-1.989-.579-3.617-1.735-4.881-1.157-1.263-2.944-1.896-5.365-1.896s-4.209.633-5.365,1.896c-1.157,1.264-1.734,2.892-1.734,4.881,0,1.937.577,3.538,1.734,4.801,1.156,1.264,2.945,1.896,5.365,1.896Z"/>
  <polygon class="st0" points="486.9 32.494 486.9 42.014 492.789 42.014 492.789 76.707 505.698 76.707 505.698 42.014 505.698 32.494 492.789 32.494 486.9 32.494"/>
  <path class="st0" d="M561.852,45.039c-1.129-2.77-2.743-5.204-4.841-7.301s-4.639-3.752-7.624-4.962c-2.985-1.21-6.388-1.815-10.206-1.815-3.712,0-7.073.605-10.085,1.815-3.014,1.21-5.581,2.864-7.705,4.962-2.126,2.098-3.739,4.532-4.841,7.301-1.104,2.771-1.654,5.688-1.654,8.754v1.856c0,3.013.537,5.877,1.613,8.592,1.076,2.717,2.649,5.124,4.721,7.221,2.069,2.098,4.611,3.751,7.624,4.962,3.012,1.21,6.454,1.815,10.327,1.815,3.926,0,7.395-.605,10.408-1.815,3.011-1.21,5.553-2.864,7.624-4.962,2.069-2.098,3.644-4.504,4.72-7.221,1.075-2.715,1.613-5.58,1.613-8.592v-1.856c0-3.066-.564-5.983-1.694-8.754ZM549.306,61.216c-.887,1.937-2.165,3.443-3.832,4.518-1.668,1.077-3.766,1.614-6.293,1.614-2.421,0-4.492-.537-6.213-1.614-1.722-1.075-3.013-2.582-3.872-4.518-.861-1.937-1.291-4.087-1.291-6.455,0-2.527.443-4.746,1.331-6.656.888-1.908,2.191-3.429,3.913-4.558,1.721-1.13,3.765-1.694,6.132-1.694,2.42,0,4.478.564,6.172,1.694,1.694,1.129,2.998,2.65,3.913,4.558.914,1.91,1.372,4.129,1.372,6.656,0,2.368-.444,4.518-1.332,6.455Z"/>
</svg>